# xmcd
#
# Track frame offsets:
#	150
#	22938
#	39679
#	59468
#	81551
#	99705
#	126423
#	146884
#	169133
#	191509
#	210937
#	231125
#	257529
#	275137
#	294983
#
# Disc length: 4191 seconds
#
# Revision: 1
# Processed by: cddbd v1.5.2PL0 Copyright (c) Steve Scherf et al.
# Submitted via: audiograbber 1.83.01
#
DISCID=e2105d0f
DTITLE=Various Artist - SC8734
DYEAR=1900
DGENRE=
TTITLE0=Cooper, Alice - Feed My Frankenstein
TTITLE1=Kiss - Heaven's On Fire
TTITLE2=Poison - Fallen Angel
TTITLE3=Cooper, Alice - Poison
TTITLE4=Twisted Sister - Price, The
TTITLE5=Faster Pussycat - House Of Pain
TTITLE6=Motley Crue - Same Ol' Situation
TTITLE7=Motley Crue - Don't Go Away Mad
TTITLE8=Motley Crue - Kickstart My Heart
TTITLE9=Motley Crue - Looks That Kill
TTITLE10=Cooper, Alice - Elected
TTITLE11=Cooper, Alice - You And Me
TTITLE12=Poison - Talk Dirty To Me
TTITLE13=Osbourne, Ozzy - Bark At The Moon
TTITLE14=Poison - Your Mama Don't Dance
EXTD=
EXTT0=
EXTT1=
EXTT2=
EXTT3=
EXTT4=
EXTT5=
EXTT6=
EXTT7=
EXTT8=
EXTT9=
EXTT10=
EXTT11=
EXTT12=
EXTT13=
EXTT14=
PLAYORDER=
